<?xml version="1.0" encoding="UTF-8"?>
<!-- Created with Inkscape (http://www.inkscape.org/) -->
<svg width="89.415mm" height="21.235mm" version="1.1" viewBox="0 0 89.415 21.235" xmlns="http://www.w3.org/2000/svg">
 <g transform="translate(-61.99 -139.84)">
  <g>
   <path d="m61.99 145.52 8.0936 15.54 2.281-4.3677-3.9316-7.8414 1e-3 -9.9e-4 -1.7002-3.3218z" stroke-width="28.072" style="paint-order:markers fill stroke"/>
   <rect x="74.955" y="145.53" width="3.4363" height="3.4363" stroke-width="55.052" style="paint-order:markers fill stroke"/>
   <g transform="translate(1.9248 -.14095)">
    <g transform="translate(18.237 45.11)">
     <rect transform="matrix(.99999 -.0038459 .0074045 .99997 0 0)" x="61.605" y="107.1" width="11.138" height="2.992" stroke-width="20.742" style="paint-order:markers fill stroke"/>
    </g>
    <path d="m85.672 145.67a7.7678 7.7678 0 0 0-7.7675 7.7675 7.7678 7.7678 0 0 0 7.7675 7.768 7.7678 7.7678 0 0 0 5.9309-2.7549l-2.3451-2.3482a4.4688 4.4688 0 0 1-3.5858 1.804 4.4688 4.4688 0 0 1-4.4685-4.469 4.4688 4.4688 0 0 1 4.4685-4.4685 4.4688 4.4688 0 0 1 4.469 4.4685 4.4688 4.4688 0 0 1-0.0243 0.44545l5e-3 -5e-3 1.0377 1.0392 2.1239-0.0181a7.7678 7.7678 0 0 0 0.1571-1.4619 7.7678 7.7678 0 0 0-7.768-7.7675z" stroke-width="25.513" style="paint-order:markers fill stroke"/>
   </g>
   <g transform="translate(37.957 44.969)">
    <path d="m67.318 100.56a7.7678 7.7678 0 0 0-7.7675 7.7675 7.7678 7.7678 0 0 0 7.7675 7.768 7.7678 7.7678 0 0 0 5.9309-2.7549l-2.3451-2.3482a4.4688 4.4688 0 0 1-3.5858 1.804 4.4688 4.4688 0 0 1-4.4685-4.469 4.4688 4.4688 0 0 1 4.4685-4.4685 4.4688 4.4688 0 0 1 4.469 4.4685 4.4688 4.4688 0 0 1-0.02429 0.44545l0.0047-5e-3 1.0377 1.0392 2.1239-0.0181a7.7678 7.7678 0 0 0 0.1571-1.4619 7.7678 7.7678 0 0 0-7.768-7.7675z" stroke-width="25.513" style="paint-order:markers fill stroke"/>
    <rect transform="matrix(.99999 -.0038459 .0074045 .99997 0 0)" x="61.605" y="107.1" width="11.138" height="2.992" stroke-width="20.742" style="paint-order:markers fill stroke"/>
   </g>
   <g transform="translate(19.055 12.903)">
    <path d="m93.925 132.62 10.583 15.548 4.7614 5e-5 -10.579-15.546z" stroke-width="13.415" style="paint-order:markers fill stroke"/>
    <path d="m101.59 136.9-7.6698 11.271h4.7615l5.2896-7.7711z" stroke-width="13.415" style="paint-order:markers fill stroke"/>
    <rect x="105.83" y="132.62" width="3.4363" height="3.4363" stroke-width="55.052" style="paint-order:markers fill stroke"/>
   </g>
   <g transform="translate(70.145 44.972)">
    <path d="m67.318 100.56a7.7678 7.7678 0 0 0-7.7675 7.7675 7.7678 7.7678 0 0 0 7.7675 7.768 7.7678 7.7678 0 0 0 5.9309-2.7549l-2.3451-2.3482a4.4688 4.4688 0 0 1-3.5858 1.804 4.4688 4.4688 0 0 1-4.4685-4.469 4.4688 4.4688 0 0 1 4.4685-4.4685 4.4688 4.4688 0 0 1 4.469 4.4685 4.4688 4.4688 0 0 1-0.02429 0.44545l0.0047-5e-3 1.0377 1.0392 2.1239-0.0181a7.7678 7.7678 0 0 0 0.1571-1.4619 7.7678 7.7678 0 0 0-7.768-7.7675z" stroke-width="25.513" style="paint-order:markers fill stroke"/>
    <rect transform="matrix(.99999 -.0038459 .0074045 .99997 0 0)" x="61.605" y="107.1" width="11.138" height="2.992" stroke-width="20.742" style="paint-order:markers fill stroke"/>
   </g>
   <path d="m147.37 139.84 4.032 4e-3v21.231h-4.0311z" stroke-width="14.274" style="paint-order:markers fill stroke"/>
  </g>
 </g>
</svg>
